<svg t="1589772337712" class="icon" viewBox="0 0 1024 1024" version="1.1" xmlns="http://www.w3.org/2000/svg" p-id="8812" width="200" height="200"><path d="M511.321036 255.010975c-5.773494 0-11.395538 0.533143-17.08512 0.868787l0 103.349833c5.722328-0.515746 11.228739-1.718131 17.08512-1.718131 103.784738 0 187.91688 84.131119 187.91688 187.918927 0 17.884322-3.302209 34.852786-7.974625 51.249221l105.687064 0c2.971681-16.665565 4.789073-33.732266 4.789073-51.249221C801.740452 385.039423 671.709957 255.010975 511.321036 255.010975zM511.321036 50.008974c-5.773494 0-11.362792 0.666172-17.08512 0.867764l0 102.501512c5.706979-0.249687 11.31265-0.867764 17.08512-0.867764 216.996173 0 392.918881 175.906336 392.918881 392.919904 0 17.417695-1.51654 34.435277-3.719718 51.250244l103.569844 0c1.733481-16.848737 2.653433-33.95023 2.653433-51.250244C1006.742453 271.810592 784.938788 50.008974 511.321036 50.008974zM691.446463 747.530294c-56.890708-21.75549-110.774943-49.748031-173.238576 8.559956-38.553061 35.985586-66.429968 32.047904-91.638093 18.648732C401.378042 761.342882 246.174214 602.889033 224.985636 551.053458c-21.186532-51.835575-9.741875-58.84113 0-74.55502 9.728572-15.734356 77.310783-52.436256 36.652781-167.765935-40.672328-115.331725-72.604598-202.183815-238.250242 0-17.183358 20.969591 0 111.843274 0 111.843274s116.799146 381.794519 513.13894 540.566616C598.054423 985.78463 737.008148 946.760848 793.097608 849.298096 820.590775 801.534256 780.717649 781.664719 691.446463 747.530294z" p-id="8813" fill="#FF9900"></path></svg>